<?xml version="1.0" encoding="utf-8"?>
<!-- Generator: Adobe Illustrator 16.0.0, SVG Export Plug-In . SVG Version: 6.00 Build 0)  -->
<!DOCTYPE svg PUBLIC "-//W3C//DTD SVG 1.1//EN" "http://www.w3.org/Graphics/SVG/1.1/DTD/svg11.dtd">
<svg version="1.1" id="Layer_1" xmlns="http://www.w3.org/2000/svg" xmlns:xlink="http://www.w3.org/1999/xlink" x="0px" y="0px"
	 width="2160px" height="1800px" viewBox="0 0 2160 1800" enable-background="new 0 0 2160 1800" xml:space="preserve">
<title>timesheet</title>
<path fill="#F79837" d="M1447.822,989.502c223.772,0.104,405.092,181.592,404.987,405.364s-181.592,405.091-405.364,404.987
	c-223.771-0.104-405.091-181.592-404.987-405.364c0.05-107.404,42.742-210.395,118.694-286.335
	C1237.146,1032.081,1340.295,989.388,1447.822,989.502z M1607.49,1493.262c2.613-0.115,5.211-0.458,7.764-1.025
	c2.578-0.469,5.087-1.256,7.471-2.344c7.982-3.179,14.857-8.628,19.775-15.674c5.038-7.026,7.892-15.383,8.203-24.023v-3.076
	c-0.443-20.238-14.354-37.687-33.984-42.627c-2.846-0.615-5.735-1.008-8.643-1.172l0,0c-16.992,0-106.055-1.465-124.365-2.49
	l-15.674-0.879l4.98-150.732c0.217-2.877,0.217-5.766,0-8.643c-0.557-2.793-1.341-5.537-2.344-8.203
	c-1.053-2.715-2.378-5.316-3.955-7.764c-1.596-2.453-3.41-4.758-5.42-6.885l0,0c-2.062-2.011-4.264-3.871-6.592-5.566
	c-2.367-1.704-4.923-3.13-7.617-4.248c-2.655-1.146-5.398-2.076-8.203-2.783c-2.749-0.575-5.543-0.918-8.35-1.025h-1.465
	c-5.664-0.051-11.285,0.994-16.553,3.076c-5.404,2.158-10.369,5.285-14.648,9.229l-1.025,1.025c-1.773,1.904-3.438,3.91-4.98,6.006
	c-1.508,2.359-2.878,4.805-4.102,7.324c-2.273,5.282-3.517,10.95-3.662,16.699l-7.764,194.092c-0.224,2.877-0.224,5.766,0,8.643
	c0.488,2.857,1.273,5.655,2.344,8.35c0.941,2.736,2.221,5.345,3.809,7.764c1.457,2.473,3.176,4.78,5.127,6.885l0,0
	c1.785,1.99,3.802,3.76,6.006,5.273l0,0c2.211,1.459,4.511,2.779,6.885,3.955c2.593,1.215,5.289,2.195,8.057,2.93l0,0
	c2.652,0.595,5.346,0.986,8.057,1.172l0,0c13.77,0,28.125,1.611,42.773,2.637c25.195,1.758,121.582,3.516,144.727,2.93
	L1607.49,1493.262z M1617.598,842.139v51.416c-30.845-10.27-62.571-17.674-94.775-22.119v-29.297l0,0V529.834h-396.826
	c-26.455,0-47.9-21.445-47.9-47.9l0,0V94.922H402.51v1443.164h536.279v1.318l0,0v1.465v0.879v1.172v1.172l0,0v1.318l0,0v1.172l0,0
	v0.879v1.318v0.879l0,0v1.025l0,0v1.318l0,0v1.172l0,0v0.879v1.318l0.879,2.49l0,0v1.318l0,0v1.025l0,0l0,0l1.172,3.809l0,0v1.172
	l0,0v1.025l0,0l0,0v0.879l0,0v1.025l0,0l1.025,2.637l0,0v0.879l0,0v1.465l0,0l0.879,2.49l0,0v1.025
	c1.758,4.541,3.516,9.082,5.42,13.623l0,0l2.49,5.859l0,0l2.49,5.859l0,0l3.223,7.178l0,0c2.637,5.859,5.42,11.572,8.203,17.285
	H392.402c-22.633-0.067-44.323-9.07-60.352-25.049c-14.548-14.262-23.445-33.305-25.049-53.613V85.4
	c0.081-47.132,38.269-85.32,85.4-85.4h733.594c14.261-0.046,27.777,6.362,36.768,17.432l420.41,410.156
	c20.511,5.788,34.648,24.538,34.57,45.85v368.701H1617.598z M1173.604,166.992l285.352,267.48h-285.352V166.992z M583.271,808.154
	c6.209-7.169,15.131-11.417,24.609-11.719h560.889c9.721,0.021,18.96,4.239,25.342,11.572c13.402,15.47,13.402,38.437,0,53.906l0,0
	c-6.345,7.318-15.511,11.581-25.195,11.719H608.467c-9.717-0.04-18.948-4.255-25.342-11.572c-13.572-15.518-13.572-38.682,0-54.199
	L583.271,808.154z M583.271,554.443c6.36-7.279,15.529-11.49,25.195-11.572h331.494c9.538,0.048,18.621,4.085,25.049,11.133l0,0
	c13.594,15.564,13.594,38.78,0,54.346c-6.345,7.318-15.511,11.581-25.195,11.719H608.467c-9.717-0.04-18.948-4.255-25.342-11.572
	c-13.594-15.565-13.594-38.781,0-54.346L583.271,554.443z M991.67,1127.93H608.906c-9.764-0.017-19.049-4.232-25.488-11.572
	c-6.54-7.559-10.084-17.252-9.961-27.246c-0.094-9.928,3.51-19.535,10.107-26.953c6.401-7.325,15.614-11.586,25.342-11.719h438.135
	C1026.284,1074.547,1007.752,1100.482,991.67,1127.93z M583.564,1315.283c6.401-7.325,15.614-11.586,25.342-11.719H927.07
	c-4.479,25.603-7.024,51.506-7.617,77.49H608.906c-9.764-0.017-19.049-4.232-25.488-11.572c-6.519-7.514-10.062-17.153-9.961-27.1
	C573.342,1332.407,576.944,1322.746,583.564,1315.283z M1682.197,1160.889c-129.156-128.956-338.397-128.794-467.354,0.362
	c-128.956,129.155-128.794,338.396,0.362,467.353s338.397,128.794,467.353-0.361c61.738-61.834,96.475-145.601,96.611-232.979
	C1779.454,1307.321,1744.534,1222.922,1682.197,1160.889z"/>
</svg>
