<?xml version="1.0" encoding="utf-8"?>
<!-- Generator: Adobe Illustrator 16.0.0, SVG Export Plug-In . SVG Version: 6.00 Build 0)  -->
<!DOCTYPE svg PUBLIC "-//W3C//DTD SVG 1.1//EN" "http://www.w3.org/Graphics/SVG/1.1/DTD/svg11.dtd">
<svg version="1.1" xmlns="http://www.w3.org/2000/svg" xmlns:xlink="http://www.w3.org/1999/xlink" x="0px" y="0px"
	 width="203.813px" height="43.083px" viewBox="0 0 203.813 43.083" enable-background="new 0 0 203.813 43.083"
	 xml:space="preserve">
<g id="Layer_2" display="none">
	<rect y="0" display="inline" width="203.813" height="43.083"/>
</g>
<g id="Layer_1">
	<g>
		<path fill="#FFFFFF" d="M65.345,0.147c1.324,0,2.366,0.474,3.127,1.422c0.552,0.709,0.829,1.516,0.829,2.423
			c0,0.313-0.032,0.641-0.095,0.986l-3.189,15.945c-0.271,1.335-0.974,2.473-2.11,3.416c-1.136,0.943-2.366,1.415-3.69,1.415H37.158
			l5.128-25.607H65.345z M50.384,20.001h1.876c0.511,0,0.987-0.182,1.43-0.547c0.443-0.365,0.717-0.808,0.821-1.329l2.064-10.349
			c0.031-0.136,0.047-0.266,0.047-0.391c0-0.344-0.11-0.656-0.329-0.938C55.991,6.082,55.585,5.9,55.074,5.9h-1.876L50.384,20.001z"
			/>
		<path fill="#FFFFFF" d="M94.954,0.147c1.324,0,2.366,0.474,3.127,1.422c0.552,0.709,0.829,1.517,0.829,2.423
			c0,0.313-0.032,0.641-0.094,0.986l-1.236,6.191c-0.354,1.751-1.359,3.105-3.017,4.064c0.907,0.709,1.361,1.699,1.361,2.97v0.25
			c-0.042,0.835-0.097,1.678-0.164,2.533c-0.069,0.854-0.123,1.699-0.165,2.532c-0.041,0.188-0.062,0.371-0.062,0.548
			c0,0.698,0.333,1.203,1,1.516l-0.078,0.172H85.308c-0.625,0-1.109-0.219-1.454-0.657c-0.25-0.322-0.375-0.693-0.375-1.109
			c0-0.157,0.016-0.318,0.047-0.485l0.657-5.628c0.021-0.125,0.031-0.24,0.031-0.344c0-0.364-0.109-0.688-0.328-0.969
			c-0.303-0.365-0.709-0.553-1.22-0.563H80.79l-1.954,9.755H66.767l5.128-25.607H94.954z M84.683,5.9h-1.876l-0.875,4.361h1.876
			c0.51,0,0.99-0.182,1.438-0.547c0.448-0.364,0.724-0.807,0.829-1.329L86.2,7.776c0.031-0.136,0.046-0.261,0.046-0.376
			c0-0.354-0.114-0.671-0.343-0.953C85.6,6.082,85.194,5.9,84.683,5.9"/>
		<polygon fill="#FFFFFF" points="102.911,0.146 114.98,0.146 109.852,25.753 97.784,25.753 		"/>
		<polygon fill="#FFFFFF" points="171.493,0.146 170.336,5.899 157.672,5.899 156.969,9.417 169.632,9.417 168.475,15.17 
			155.812,15.17 154.859,20 167.522,20 166.365,25.753 141.633,25.753 146.76,0.146 		"/>
		<polygon fill="#FFFFFF" points="191.675,0.146 203.729,0.146 198.601,25.753 186.547,25.753 182.717,12.951 180.154,25.753 
			168.084,25.753 173.212,0.146 185.282,0.146 189.112,12.951 		"/>
		<path fill-rule="evenodd" clip-rule="evenodd" fill="#F89838" d="M39.871,0.146h-24.46l-4.096,7.344
			c-1.292,2.33-0.476,4.201,1.867,4.201h24.292L39.871,0.146z"/>
		<path fill-rule="evenodd" clip-rule="evenodd" fill="#F89838" d="M37.039,13.534H10.784c-2.372,0-5.412,1.925-6.785,4.301
			l-3.826,7.972h34.238L37.039,13.534z"/>
		<path fill="#999999" d="M190.262,33.793l0.505-0.521l-3.599,0.015l-0.548,0.506h-5.048l1.631-1.646h8.688l2.545-2.53
			c0.15-0.169,0.104-0.267-0.141-0.295h-11.88c-0.329,0-0.586,0.103-0.773,0.309l-4.162,4.162h-8.773l4.147-4.148
			c0.057-0.038,0.065-0.101,0.028-0.189c-0.037-0.09-0.099-0.134-0.183-0.134h-11.29c-0.534,0-0.965,0.164-1.293,0.492l-3.979,3.979
			h-7.072c-0.402,0-0.618-0.187-0.646-0.562c0-0.206,0.126-0.441,0.38-0.703l3.768-3.754h-3.896l-5.032,5.019h-4.78l3.543-3.557
			h4.429l0.914-0.914h-7.943c-0.348,0-0.639,0.118-0.871,0.352l-4.109,4.119h-8.446l3.754-3.726c0.3-0.487,0.075-0.731-0.675-0.731
			h-5.525l1.463-1.461h-5.021c-0.309,0.356-0.766,0.862-1.371,1.518c-0.604,0.656-1.239,1.312-1.905,1.968
			c-0.664,0.656-1.312,1.226-1.938,1.707c-0.629,0.484-1.126,0.725-1.491,0.725h-7.072c-0.402,0-0.618-0.187-0.646-0.562
			c0-0.206,0.126-0.441,0.378-0.703l3.768-3.754H106.2l-5.034,5.019h-4.779l3.542-3.557h4.429l0.914-0.914h-7.944
			c-0.346,0-0.637,0.118-0.872,0.352l-4.108,4.119h-8.77l4.148-4.148c0.056-0.038,0.066-0.101,0.028-0.189
			c-0.038-0.09-0.098-0.134-0.182-0.134h-11.29c-0.535,0-0.966,0.164-1.294,0.492l-3.979,3.979l-1.153,1.167h8.605l-5.526,5.483
			c-0.356,0.347-0.895,0.6-1.616,0.759c-0.722,0.159-1.238,0.239-1.547,0.239h-2.798l-1.504,1.505h5.469
			c1.162,0,2.221-0.19,3.178-0.57c0.956-0.38,1.883-1.015,2.783-1.905l5.526-5.511h8.758h0.436h20.895h0.407h2.993
			c0.967,0,2.059-0.609,3.276-1.828c1.218-1.218,2.155-2.179,2.812-2.882h4.288l-4.261,4.26c-0.111,0.112-0.136,0.218-0.07,0.316
			c0.065,0.099,0.159,0.144,0.281,0.134h11.416h0.268h21.061h0.408h8.196l-5.525,5.483c-0.356,0.347-0.896,0.6-1.617,0.759
			c-0.722,0.159-1.236,0.239-1.547,0.239h-2.797l-1.505,1.505h5.469c1.163,0,2.222-0.19,3.178-0.57
			c0.957-0.38,1.884-1.015,2.784-1.905l5.526-5.511h8.759h0.435h21.301l1.167-1.167H190.262z M185.116,30.236h5.02l-1.575,1.589
			h-5.033L185.116,30.236z M79.656,33.793h-4.865l3.585-3.571h4.809L79.656,33.793z M164.785,33.793h-4.864l3.586-3.571h4.808
			L164.785,33.793z"/>
		<polygon fill="#FFFFFF" points="132.097,25.754 121.373,25.754 117.261,0.147 129.33,0.147 131.581,14.233 139.117,0.147 
			146.48,0.147 		"/>
	</g>
</g>
</svg>
