<svg xmlns:xlink="http://www.w3.org/1999/xlink" width="512" xmlns="http://www.w3.org/2000/svg" height="512" id="screenshot-123a67e1-3325-8083-8003-569cc30daae8" viewBox="0 0 512 512" style="-webkit-print-color-adjust: exact;" fill="none" version="1.1"><g id="shape-123a67e1-3325-8083-8003-569cc30daae8" version="1.0" width="512.000000pt" height="512.000000pt" preserveAspectRatio="xMidYMid meet" rx="0" ry="0" style="fill: rgb(0, 0, 0);"><g id="shape-123a67e1-3325-8083-8003-569cc30f2120" rx="0" ry="0" style="fill: rgb(0, 0, 0);"><g id="shape-123a67e1-3325-8083-8003-569cc316cc3e"><g class="fills" id="fills-123a67e1-3325-8083-8003-569cc316cc3e"><path rx="0" ry="0" d="M369.600,6.300C361.500,9.600,356.200,12.300,355.300,13.700C354.100,15.500,354.100,17.400,355.100,26.000C356.200,35.600,356.100,36.300,354.300,38.100C352.400,40.000,352.100,40.000,342.200,38.400C333.900,37.000,331.500,36.900,329.600,37.900C328.000,38.800,325.400,43.400,321.100,53.100C317.800,60.800,315.000,67.800,315.000,68.600C315.000,71.500,316.900,73.600,324.400,79.500C334.500,87.500,334.600,89.200,325.300,95.800C315.100,103.000,313.700,104.600,314.300,108.300C314.600,110.100,317.100,117.400,319.900,124.600C326.100,140.500,325.900,140.300,339.500,138.800C348.700,137.800,349.200,137.800,351.200,139.800C353.300,141.900,353.300,142.000,351.700,151.600C349.400,165.300,349.200,165.000,366.900,172.900C378.900,178.200,381.700,179.100,383.900,178.400C385.300,177.900,389.200,174.000,392.500,169.800C397.600,163.300,399.000,162.100,401.600,162.100C404.300,162.000,405.200,162.900,409.700,169.200C416.400,178.800,418.200,180.400,421.800,179.700C423.400,179.400,430.600,176.800,437.900,174.000C447.900,170.100,451.400,168.200,452.200,166.500C452.900,164.800,452.900,161.300,452.100,154.400C451.000,145.100,451.000,144.600,453.000,142.500C455.000,140.400,455.300,140.400,462.300,141.600C472.600,143.400,477.400,143.300,479.200,141.200C481.300,138.900,492.000,114.400,492.000,112.100C492.000,108.600,490.900,107.200,482.900,100.900C472.800,93.000,472.700,91.600,482.000,84.800C492.100,77.400,493.000,76.400,493.000,73.300C493.000,69.600,483.400,45.000,481.000,42.600C479.200,40.700,478.500,40.700,468.300,41.800C458.200,42.800,457.400,42.800,455.600,41.000C453.700,39.200,453.700,38.800,455.400,28.800C456.300,23.100,456.800,17.600,456.400,16.700C455.300,13.800,430.000,2.000,425.100,2.000C421.600,2.000,421.100,2.400,414.200,11.100C408.500,18.300,408.000,18.700,405.100,18.100C402.800,17.600,400.700,15.600,396.100,9.200C390.300,1.400,389.800,1.000,386.300,1.100C384.200,1.100,376.700,3.500,369.600,6.300ZZM388.400,22.400C390.900,26.000,393.600,29.500,394.400,30.300C396.300,32.100,411.200,33.300,414.300,31.900C415.500,31.300,418.900,27.700,421.900,24.000L427.200,17.100L430.900,18.700C432.900,19.500,436.200,20.900,438.300,21.800C440.300,22.600,442.000,23.800,442.000,24.400C442.000,25.000,441.300,29.300,440.500,33.900C438.800,43.600,438.600,43.000,446.900,51.900L451.900,57.200L460.200,56.600C464.800,56.200,469.300,55.800,470.400,55.700C471.800,55.500,472.900,57.200,475.100,62.900C476.700,67.000,477.900,70.400,477.700,70.500C477.600,70.600,474.200,73.100,470.200,76.000C466.100,78.900,462.500,82.300,462.000,83.500C461.600,84.700,461.200,88.900,461.100,93.000C461.000,100.100,461.100,100.400,464.800,103.900C466.800,105.900,470.400,109.100,472.700,111.000L476.800,114.500L473.500,121.600L470.200,128.700L462.800,127.400C450.700,125.200,450.600,125.300,443.300,132.200L436.900,138.400L437.200,148.800L437.500,159.200L431.100,161.600C427.600,162.900,424.400,164.000,423.900,164.000C423.500,164.000,421.000,161.100,418.500,157.500C412.100,148.500,411.100,148.000,401.400,148.000C395.000,148.000,392.800,148.400,391.300,149.700C389.800,151.100,382.400,159.900,380.300,162.900C380.000,163.300,368.600,158.700,366.300,157.200C365.300,156.600,365.400,154.400,366.600,147.300C367.500,142.000,367.800,137.500,367.300,136.700C365.900,134.200,357.100,125.100,355.100,124.100C353.800,123.400,350.400,123.400,344.500,124.100C339.700,124.700,335.600,124.900,335.200,124.600C334.900,124.300,333.400,120.900,332.000,117.100L329.300,110.100L337.000,104.500C341.300,101.500,345.100,98.200,345.400,97.400C345.700,96.500,346.000,92.200,346.000,87.700L346.000,79.600L341.800,75.900C339.400,73.900,335.900,70.900,334.100,69.200L330.600,66.300L333.600,59.400C337.100,51.600,335.800,52.100,350.100,53.500L357.800,54.300L364.000,48.400L370.200,42.500L369.600,32.000L369.000,21.400L375.700,18.800C379.500,17.400,382.800,16.200,383.200,16.100C383.500,16.000,385.900,18.900,388.400,22.400ZZ" style="fill: rgb(121, 121, 121);"/></g></g><g id="shape-123a67e1-3325-8083-8003-569cc317c3bd"><g class="fills" id="fills-123a67e1-3325-8083-8003-569cc317c3bd"><path rx="0" ry="0" d="M391.300,54.800C380.900,58.500,374.700,64.300,369.600,75.000C366.800,80.800,366.500,82.500,366.500,90.500C366.500,98.700,366.800,100.200,369.800,106.200C383.900,134.900,423.600,134.700,437.400,106.000C440.200,100.100,440.500,98.600,440.500,90.000C440.500,81.300,440.200,79.900,437.300,73.900C433.400,66.000,427.100,59.900,419.200,56.200C411.700,52.700,399.100,52.100,391.300,54.800ZZM412.800,68.600C425.200,73.700,430.500,88.500,424.400,100.800C423.000,103.700,420.300,107.200,418.600,108.500C414.800,111.400,407.900,114.000,404.100,114.000C398.800,114.000,391.300,111.000,387.700,107.500C382.800,102.700,380.900,98.800,380.300,92.100C379.400,82.300,385.300,72.400,394.400,68.400C398.600,66.600,408.300,66.700,412.800,68.600ZZ" style="fill: rgb(121, 121, 121);"/></g></g><g id="shape-123a67e1-3325-8083-8003-569cc31e6088"><g class="fills" id="fills-123a67e1-3325-8083-8003-569cc31e6088"><path rx="0" ry="0" d="M184.400,61.100C146.800,63.800,111.700,86.800,95.100,119.600C86.600,136.500,84.600,145.400,84.500,165.500C84.500,179.900,84.800,182.600,87.400,192.500C88.900,198.500,91.100,205.700,92.100,208.300C94.500,214.500,94.500,215.700,91.700,216.400C88.100,217.300,81.700,223.400,78.800,228.700C73.100,239.000,73.500,252.300,79.700,265.000C84.000,273.900,92.300,282.600,99.800,286.100C104.600,288.400,105.000,288.800,107.500,296.000C112.300,309.300,122.800,328.600,129.200,335.600C130.700,337.300,131.000,339.000,130.800,343.600L130.500,349.400L105.000,363.800C61.800,388.200,34.100,405.000,29.500,409.700C27.100,412.100,23.900,416.600,22.300,419.800L19.500,425.500L19.200,464.300C19.000,494.400,19.200,503.500,20.200,504.700C23.800,509.000,30.100,507.900,32.000,502.700C32.600,500.800,33.000,486.600,33.000,464.800C33.000,419.900,31.800,423.000,54.000,409.500L66.500,402.000L67.000,452.900C67.500,499.200,67.700,504.100,69.200,505.600C71.700,508.100,76.900,507.800,79.200,505.100C80.900,502.900,81.000,499.700,81.000,448.100L81.000,393.500L94.200,386.000C101.500,381.900,108.000,378.400,108.700,378.200C109.800,377.900,110.000,385.500,110.000,418.200C110.000,451.500,110.200,459.000,111.400,460.600C112.800,462.400,115.000,462.500,193.400,462.800L274.100,463.000L276.500,460.600L279.000,458.100L279.000,418.000C279.000,396.000,279.300,378.000,279.700,378.000C280.100,378.000,286.400,381.400,293.700,385.600L307.000,393.200L307.000,446.500C307.000,481.100,307.400,500.800,308.000,502.700C309.800,507.800,314.900,508.900,319.300,505.200C320.900,503.800,321.000,500.000,321.000,452.800C321.000,424.900,321.200,402.000,321.400,402.000C321.700,402.000,327.500,405.400,334.400,409.500C348.200,417.800,353.200,422.700,354.900,429.500C355.600,432.300,356.000,446.500,356.000,468.300C356.000,500.300,356.100,502.900,357.800,505.100C360.400,508.200,365.600,508.200,368.200,505.000C370.000,502.800,370.100,500.700,369.800,465.100C369.500,428.600,369.400,427.300,367.200,421.800C363.100,411.600,358.000,407.300,333.500,392.700C321.300,385.400,299.400,372.700,284.700,364.500L258.100,349.500L258.000,343.800C258.000,338.500,258.400,337.600,264.300,328.800C271.300,318.200,277.600,305.800,281.000,295.700C283.200,289.200,283.500,288.900,289.100,285.900C297.200,281.500,305.200,272.800,309.800,263.300C313.300,255.900,313.500,255.000,313.500,245.500C313.500,236.700,313.100,234.900,310.800,230.500C307.600,224.400,302.900,219.500,297.700,216.900C294.800,215.400,294.000,214.500,294.500,213.200C302.200,194.400,305.900,171.600,304.100,155.400C299.900,119.600,279.100,90.000,246.200,73.100C226.700,63.200,207.700,59.500,184.400,61.100ZZM203.200,75.000C244.600,78.900,278.300,106.500,288.100,144.500C290.300,153.100,291.100,170.700,289.700,179.100L288.900,183.600L277.700,178.000C226.200,152.200,158.900,152.700,108.200,179.400C101.000,183.200,99.800,183.600,99.200,182.100C98.800,181.200,98.500,173.700,98.500,165.500C98.600,148.500,99.700,143.200,106.100,129.200C119.800,99.400,150.200,78.300,184.000,75.000C188.100,74.600,191.700,74.200,192.000,74.100C192.300,74.100,197.300,74.500,203.200,75.000ZZM214.500,174.000C226.900,175.500,240.300,178.400,251.300,182.000C260.700,185.100,278.600,193.500,282.900,196.800L285.200,198.700L281.500,208.100C279.500,213.300,275.800,221.300,273.300,226.000C268.100,235.800,257.200,252.000,255.400,252.700C254.800,252.900,251.700,251.700,248.700,250.000C245.700,248.300,239.500,245.600,234.900,243.900C204.400,232.800,172.100,234.300,143.800,248.300L133.100,253.600L128.700,247.500C118.900,233.800,109.300,215.700,105.000,202.600C103.800,198.900,103.900,198.500,106.100,196.700C110.100,193.500,125.100,186.300,135.700,182.600C159.600,174.300,189.000,171.100,214.500,174.000ZZM297.800,236.000C300.700,241.800,300.700,248.800,297.700,256.100C295.400,261.700,290.200,269.000,288.600,269.000C288.200,269.000,288.100,266.400,288.500,263.200C288.900,260.100,289.200,250.800,289.200,242.700L289.100,227.900L292.300,229.700C294.100,230.700,296.500,233.500,297.800,236.000ZZM99.300,247.200C99.600,257.300,100.200,266.600,100.600,268.000C101.300,270.500,101.300,270.500,98.100,267.500C92.800,262.600,88.800,253.200,88.700,245.800C88.700,242.300,89.200,238.400,89.900,237.000C91.700,233.600,96.100,229.000,97.500,229.000C98.400,229.000,98.900,234.300,99.300,247.200ZZM127.700,268.000C129.100,269.100,131.000,270.000,132.000,270.000C132.900,270.000,137.400,267.800,141.900,265.000C158.800,254.900,174.000,250.800,194.500,250.800C214.100,250.700,230.600,255.200,246.700,265.000C251.200,267.800,255.900,270.000,257.100,270.000C259.500,270.000,265.100,264.400,270.800,256.100L274.500,250.700L274.800,255.400C275.200,262.100,272.400,277.000,268.400,288.900C257.800,320.700,237.600,344.600,212.800,354.800C205.200,357.900,191.700,358.900,183.100,357.000C170.700,354.400,155.000,344.200,144.200,331.900C126.700,311.800,116.200,286.300,113.500,257.000L112.800,249.500L118.900,257.700C122.300,262.200,126.300,266.800,127.700,268.000ZZM153.700,358.700C179.900,377.000,209.200,376.600,236.800,357.400C240.300,355.000,243.200,353.000,243.400,353.000C244.100,353.000,241.900,366.000,240.600,369.700C230.000,399.500,193.400,411.500,167.100,393.900C159.800,389.000,154.800,383.500,150.900,375.800C148.000,370.100,145.000,359.700,145.000,355.200C145.000,352.600,144.700,352.400,153.700,358.700ZZM134.500,372.600C140.100,389.100,151.300,402.100,166.500,409.500C175.900,414.200,183.700,416.000,194.000,416.000C212.000,416.000,226.000,410.200,238.500,397.600C247.000,389.000,251.500,381.700,254.600,371.500C255.600,368.200,256.500,365.400,256.600,365.200C256.700,365.000,258.600,365.800,260.900,367.000L265.000,369.000L265.000,409.000L265.000,449.000L194.300,448.800L123.500,448.500L123.200,409.300L123.000,370.000L126.700,367.600C128.800,366.200,130.900,365.200,131.300,365.300C131.800,365.400,133.200,368.700,134.500,372.600ZZ" style="fill: rgb(121, 121, 121); fill-opacity: 1;"/></g></g><g id="shape-123a67e1-3325-8083-8003-569cc3209f0d"><g class="fills" id="fills-123a67e1-3325-8083-8003-569cc3209f0d"><path rx="0" ry="0" d="M392.300,187.900C379.800,195.900,370.100,208.600,365.700,222.500C363.900,228.100,363.500,231.900,363.500,241.500C363.500,251.100,363.900,254.900,365.700,260.500C368.700,270.000,374.300,279.000,381.700,286.500L388.000,292.700L388.200,387.100L388.500,481.500L390.800,487.200C393.900,494.800,401.700,503.300,409.400,507.300C415.200,510.300,416.100,510.500,426.500,510.500C436.600,510.500,437.900,510.300,442.800,507.700C449.500,504.200,456.200,498.100,459.400,492.500C465.100,482.900,465.000,484.500,465.000,384.700L465.000,292.700L471.800,285.600C479.600,277.300,483.900,270.400,487.200,260.500C489.100,254.700,489.500,251.400,489.500,241.500C489.500,228.100,487.600,220.300,481.800,210.100C475.600,199.300,458.300,184.000,452.200,184.000C450.900,184.000,448.800,185.100,447.500,186.500C445.000,188.900,445.000,189.200,445.000,206.100C445.000,221.700,444.800,223.800,442.900,227.800C439.700,234.200,434.300,237.500,426.500,237.500C418.700,237.500,413.300,234.200,410.100,227.800C408.200,223.800,408.000,221.700,408.000,206.100C408.000,189.200,408.000,188.900,405.500,186.500C402.100,183.100,399.300,183.400,392.300,187.900ZZM397.200,233.500C400.600,240.000,407.200,246.300,413.500,249.200C420.400,252.300,432.500,252.400,439.200,249.300C445.800,246.300,452.500,239.700,455.700,233.100C458.100,228.200,458.500,226.000,459.000,215.500L459.500,203.500L463.800,208.900C482.800,232.800,479.100,264.000,455.000,282.300L451.500,284.900L451.000,382.200C450.500,479.400,450.500,479.500,448.400,483.500C437.900,503.000,410.700,501.400,403.500,480.900C402.200,477.400,402.000,462.500,402.000,381.300L402.000,285.800L398.800,283.200C383.600,270.800,377.100,258.200,377.000,241.500C377.000,229.300,381.300,217.800,389.200,208.500L393.500,203.600L394.100,216.000C394.500,226.900,394.900,229.100,397.200,233.500ZZ" style="fill: rgb(121, 121, 121);"/></g></g><g id="shape-123a67e1-3325-8083-8003-569cc32170bd"><g class="fills" id="fills-123a67e1-3325-8083-8003-569cc32170bd"><path rx="0" ry="0" d="M421.900,355.900L419.500,357.800L419.500,389.300C419.500,418.900,419.600,420.900,421.400,422.900C423.800,425.500,429.100,425.700,431.300,423.200C432.800,421.600,433.000,417.700,433.000,389.700C433.000,359.300,432.900,357.900,431.000,356.000C428.500,353.500,424.900,353.400,421.900,355.900ZZ" style="fill: rgb(121, 121, 121);"/></g></g></g></g></svg>