<svg xmlns:xlink="http://www.w3.org/1999/xlink" width="512" xmlns="http://www.w3.org/2000/svg" height="512" id="screenshot-123a67e1-3325-8083-8003-569db49d1ac7" viewBox="0 0 512 512" style="-webkit-print-color-adjust: exact;" fill="none" version="1.1"><g id="shape-123a67e1-3325-8083-8003-569db49d1ac7" version="1.0" width="512.000000pt" height="512.000000pt" preserveAspectRatio="xMidYMid meet" rx="0" ry="0" style="fill: rgb(0, 0, 0);"><g id="shape-123a67e1-3325-8083-8003-569db49def23" rx="0" ry="0" style="fill: rgb(0, 0, 0);"><g id="shape-123a67e1-3325-8083-8003-569db4a18c72"><g class="fills" id="fills-123a67e1-3325-8083-8003-569db4a18c72"><path rx="0" ry="0" d="M58.500,18.500C56.900,20.100,56.000,22.000,56.000,24.200C56.000,27.100,58.500,29.900,80.000,51.500L104.000,75.600L104.000,84.000L104.000,92.400L98.300,98.200L92.600,104.000L84.100,104.000L75.600,104.000L51.500,80.000C29.900,58.500,27.100,56.000,24.200,56.000C22.000,56.000,20.100,56.900,18.500,58.500L16.000,60.900L16.000,92.200L16.000,123.500L38.300,145.700L60.500,168.000L88.500,168.000L116.500,168.000L155.200,206.700L194.000,245.500L199.700,239.700L205.500,234.000L168.500,197.000L131.500,160.000L145.800,145.800L160.000,131.500L201.000,172.500L242.000,213.500L247.700,207.700L253.500,202.000L210.700,159.200L168.000,116.500L168.000,88.500L168.000,60.500L145.700,38.300L123.500,16.000L92.200,16.000L60.900,16.000L58.500,18.500ZZM134.300,49.800L152.000,67.500L152.000,92.000L152.000,116.500L134.200,134.300L116.500,152.000L92.000,152.000L67.500,152.000L49.800,134.300L32.000,116.500L32.000,100.000L32.000,83.600L50.300,101.800L68.600,120.000L84.000,120.000L99.400,120.000L109.700,109.700L120.000,99.400L120.000,84.000L120.000,68.600L101.800,50.300L83.600,32.000L100.000,32.000L116.500,32.000L134.300,49.800ZZ" style="fill: rgb(121, 121, 121);"/></g></g><g id="shape-123a67e1-3325-8083-8003-569db4a8433e"><g class="fills" id="fills-123a67e1-3325-8083-8003-569db4a8433e"><path rx="0" ry="0" d="M362.300,26.300C351.000,37.600,349.900,40.100,354.100,45.500L356.300,48.200L350.200,54.200L344.200,60.300L341.500,58.100C335.100,53.100,336.800,51.700,286.300,102.300C244.000,144.500,240.000,148.800,240.000,151.800C240.000,153.900,240.800,155.900,242.400,157.500C244.700,159.800,245.000,159.900,257.700,159.300C265.700,158.900,273.100,159.200,277.300,159.900C285.400,161.300,297.000,164.800,297.000,165.800C297.000,167.300,287.400,183.200,281.000,192.300C272.700,204.200,252.100,224.600,240.000,233.200C222.000,245.900,205.300,254.100,184.000,260.700C174.300,263.700,170.300,264.400,158.500,265.100C137.200,266.300,121.600,271.700,107.000,282.900C103.400,285.600,81.500,306.900,58.300,330.200C19.000,369.600,16.000,372.800,16.000,376.000C16.000,379.100,17.700,381.100,34.300,397.700C57.200,420.600,55.100,420.100,69.700,405.800L80.100,395.600L98.200,413.800L116.400,431.900L106.200,442.300C91.900,456.900,91.400,454.800,114.300,477.700C130.900,494.300,132.900,496.000,136.000,496.000C139.200,496.000,142.400,493.000,181.800,453.700C205.100,430.500,226.400,408.600,229.100,405.000C240.300,390.400,245.700,374.800,247.000,353.500C247.600,342.300,248.400,337.400,250.900,329.300C263.300,288.700,285.400,256.700,318.100,232.200C326.400,226.000,344.300,215.000,346.100,215.000C347.100,215.000,350.800,227.000,352.100,234.600C352.800,238.900,353.100,246.200,352.700,254.300C352.100,267.000,352.200,267.300,354.500,269.600C356.100,271.200,358.100,272.000,360.200,272.000C363.200,272.000,367.500,268.000,409.700,225.700C460.300,175.200,458.900,176.900,453.900,170.500L451.700,167.800L457.800,161.800L463.800,155.700L466.500,157.900C471.900,162.100,474.400,161.000,485.700,149.700L496.000,139.400L496.000,124.000L496.000,108.500L449.700,62.300L403.500,16.000L388.000,16.000L372.600,16.000L362.300,26.300ZZM438.200,73.700L480.000,115.500L480.000,124.000L480.000,132.600L476.000,136.500L472.000,140.500L421.800,90.200L371.500,40.000L375.500,36.000L379.400,32.000L387.900,32.000L396.500,32.000L438.200,73.700ZZM410.500,102.000L452.500,144.000L446.200,150.200L440.000,156.500L397.800,114.300L355.500,72.000L361.500,66.000C364.800,62.700,367.700,60.000,368.000,60.000C368.300,60.000,387.400,78.900,410.500,102.000ZZM386.500,126.000L436.500,176.000L403.000,209.500L369.600,242.900L367.900,233.200C365.000,215.900,358.800,200.800,349.400,188.000C331.400,163.500,306.100,148.000,277.500,143.800L268.900,142.600L302.200,109.300C320.500,91.000,335.700,76.000,336.000,76.000C336.300,76.000,359.000,98.500,386.500,126.000ZZM323.900,183.500C327.400,186.800,332.200,191.900,334.600,194.900L338.900,200.400L330.700,204.900C291.600,226.900,260.900,261.100,243.900,301.600L238.700,313.900L235.100,307.900C226.800,294.300,217.100,284.600,204.100,276.900L198.100,273.300L210.300,268.200C238.000,256.500,263.900,237.700,283.100,215.300C292.400,204.500,303.200,189.000,308.500,178.800L311.400,173.200L314.500,175.300C316.100,176.500,320.400,180.100,323.900,183.500ZZM175.300,282.600C179.300,283.500,186.800,286.200,192.000,288.700C199.900,292.500,202.800,294.600,210.100,301.900C217.400,309.200,219.500,312.100,223.300,320.000C230.800,335.800,232.900,351.600,229.400,367.300C227.700,374.900,221.700,388.500,218.000,393.300L215.700,396.200L209.500,390.000L203.200,383.700L206.500,377.600C217.900,356.800,214.200,331.200,197.500,314.500C180.800,297.800,155.200,294.100,134.400,305.500L128.300,308.800L122.000,302.500L115.800,296.300L119.200,293.700C132.900,283.200,156.800,278.500,175.300,282.600ZZM113.500,326.400C96.800,356.900,113.100,394.500,147.000,403.500C158.800,406.700,174.500,404.600,185.600,398.500L191.700,395.200L198.000,401.500L204.200,407.700L201.300,410.000C196.500,413.700,182.900,419.700,175.300,421.400C159.600,424.900,143.800,422.800,128.000,415.300C120.100,411.500,117.200,409.400,109.900,402.100C102.600,394.800,100.500,391.900,96.700,384.000C89.100,368.200,87.100,352.400,90.600,336.700C92.400,328.600,97.700,316.400,101.600,311.200L104.300,307.800L110.500,314.000L116.800,320.300L113.500,326.400ZZM175.200,318.200C183.100,321.800,189.400,328.000,193.300,335.900C196.200,341.900,196.500,343.300,196.500,352.000C196.500,360.700,196.200,362.100,193.300,368.100C189.400,376.000,183.100,382.100,175.200,385.800C170.300,388.100,168.200,388.500,160.000,388.500C151.800,388.500,149.700,388.100,144.800,385.800C136.900,382.100,130.600,376.000,126.700,368.100C123.800,362.100,123.500,360.700,123.500,352.000C123.500,343.800,123.900,341.700,126.100,336.900C130.800,327.000,138.900,319.800,149.300,316.400C156.000,314.200,168.300,315.100,175.200,318.200ZZM73.500,352.000L73.500,366.000L66.500,359.000L59.500,352.000L66.500,345.000C70.300,341.200,73.500,338.000,73.500,338.000C73.500,338.000,73.500,344.300,73.500,352.000ZZM58.500,374.000L68.500,384.000L62.200,390.200L56.000,396.500L45.800,386.300L35.500,376.000L41.500,370.000C44.800,366.700,47.700,364.000,48.000,364.000C48.300,364.000,53.000,368.500,58.500,374.000ZZM167.000,445.500L160.000,452.500L153.000,445.500L146.000,438.500L160.000,438.500L174.000,438.500L167.000,445.500ZZM138.500,454.000L148.500,464.000L142.200,470.200L136.000,476.500L125.800,466.300L115.500,456.000L121.500,450.000C124.800,446.700,127.700,444.000,128.000,444.000C128.300,444.000,133.000,448.500,138.500,454.000ZZ" style="fill: rgb(121, 121, 121);"/></g></g><g id="shape-123a67e1-3325-8083-8003-569db4a93d44"><g class="fills" id="fills-123a67e1-3325-8083-8003-569db4a93d44"><path rx="0" ry="0" d="M352.000,129.300C347.100,130.900,338.700,139.500,337.200,144.600C334.400,154.000,336.400,161.500,343.500,168.500C348.600,173.700,353.700,176.000,360.000,176.000C372.400,176.000,384.000,164.400,384.000,152.000C384.000,145.700,381.700,140.600,376.500,135.500C369.500,128.400,361.300,126.400,352.000,129.300ZZM365.500,146.500C367.100,148.000,368.000,150.100,368.000,152.000C368.000,153.900,367.100,156.000,365.500,157.500C364.000,159.100,361.900,160.000,360.000,160.000C358.100,160.000,356.000,159.100,354.500,157.500C352.900,156.000,352.000,153.900,352.000,152.000C352.000,150.100,352.900,148.000,354.500,146.500C356.000,144.900,358.100,144.000,360.000,144.000C361.900,144.000,364.000,144.900,365.500,146.500ZZ" style="fill: rgb(121, 121, 121);"/></g></g><g id="shape-123a67e1-3325-8083-8003-569db4a9a48a"><g class="fills" id="fills-123a67e1-3325-8083-8003-569db4a9a48a"><path rx="0" ry="0" d="M159.400,160.600L154.600,166.100L180.300,191.800L206.000,217.500L211.700,211.700L217.500,206.000L192.000,180.500C178.000,166.500,166.000,155.000,165.300,155.000C164.700,155.000,162.000,157.500,159.400,160.600ZZ" style="fill: rgb(121, 121, 121);"/></g></g><g id="shape-123a67e1-3325-8083-8003-569db4aabbf4"><g class="fills" id="fills-123a67e1-3325-8083-8003-569db4aabbf4"><path rx="0" ry="0" d="M303.700,263.800C301.100,266.400,299.000,269.000,299.000,269.500C299.000,270.100,315.500,287.000,335.700,307.200L372.500,344.000L358.200,358.200L344.000,372.500L311.200,339.700C293.200,321.700,278.000,307.000,277.500,307.000C276.200,307.000,267.000,316.200,267.000,317.500C267.000,318.100,282.500,334.000,301.500,353.000L336.000,387.500L336.000,415.500L336.000,443.500L358.300,465.700L380.500,488.000L412.000,488.000L443.500,488.000L465.700,465.700L488.000,443.500L488.000,412.000L488.000,380.500L465.700,358.300L443.500,336.000L415.500,336.000L387.500,336.000L349.000,297.500C327.800,276.300,310.000,259.000,309.500,259.000C308.900,259.000,306.300,261.200,303.700,263.800ZZM454.200,369.700L472.000,387.500L472.000,412.000L472.000,436.500L454.200,454.300L436.500,472.000L412.000,472.000L387.500,472.000L369.800,454.300L352.000,436.500L352.000,412.000L352.000,387.500L369.700,369.800L387.500,352.000L412.000,352.000L436.500,352.000L454.200,369.700ZZ" style="fill: rgb(121, 121, 121);"/></g></g><g id="shape-123a67e1-3325-8083-8003-569db4ab6671"><g class="fills" id="fills-123a67e1-3325-8083-8003-569db4ab6671"><path rx="0" ry="0" d="M386.300,386.300L376.000,396.600L376.000,412.000L376.000,427.400L386.300,437.700L396.600,448.000L412.000,448.000L427.400,448.000L437.700,437.700L448.000,427.400L448.000,412.000L448.000,396.600L437.700,386.300L427.400,376.000L412.000,376.000L396.600,376.000L386.300,386.300ZZM426.200,397.700L432.000,403.400L432.000,411.900L432.000,420.400L426.300,426.200L420.600,432.000L412.000,432.000L403.400,432.000L397.700,426.200L392.000,420.400L392.000,412.000L392.000,403.600L397.700,397.800L403.400,392.000L411.900,392.000L420.400,392.000L426.200,397.700ZZ" style="fill: rgb(121, 121, 121);"/></g></g><g id="shape-123a67e1-3325-8083-8003-569db4abbaf3"><g class="fills" id="fills-123a67e1-3325-8083-8003-569db4abbaf3"><path rx="0" ry="0" d="M291.400,292.600L286.600,298.100L312.300,323.800L338.000,349.500L343.700,343.700L349.500,338.000L324.000,312.500C310.000,298.500,298.000,287.000,297.300,287.000C296.700,287.000,294.000,289.500,291.400,292.600ZZ" style="fill: rgb(121, 121, 121);"/></g></g></g></g></svg>